<?xml version="1.0" encoding="utf-8"?>
<!-- Generator: Adobe Illustrator 27.3.1, SVG Export Plug-In . SVG Version: 6.00 Build 0)  -->
<svg version="1.1" id="Layer_1" xmlns="http://www.w3.org/2000/svg" xmlns:xlink="http://www.w3.org/1999/xlink" x="0px" y="0px"
	 viewBox="0 0 297.19 81.96" style="enable-background:new 0 0 297.19 81.96;" xml:space="preserve">
<style type="text/css">
	.st0{fill:#F09322;}
	.st1{fill:#ED0D77;}
	.st2{font-family:'AristaProAlternate-DemiBold';}
	.st3{font-size:42.0358px;}
</style>
<g>
	<g>
		<path class="st0" d="M10.74,34.87c0,0,12.53-22.61,33.08-20.42V9.08c0-0.92-0.54-1.76-1.39-2.1c-1.22-0.48-3.22-0.93-5.97-0.41
			C32.07,7.39,9.19,14.32,10.74,34.87z"/>
		<path class="st0" d="M13.41,62.95c0,0,2.47,6.09,8.7,9.22c4.05,2.04,6.16-0.86,7.1-3c0.44-0.98,0.65-2.05,0.65-3.12V47.03
			C18.09,53.37,13.41,62.95,13.41,62.95z"/>
		<path class="st1" d="M44.33,21.26v20.93c-5.7,0.92-10.49,2.69-14.46,4.84c-11.42,6.14-16.15,15.32-16.45,15.89
			c-0.01,0.02-0.01,0.03-0.01,0.03c-3.4-7.05-4.35-14.64-2.02-23.04C19.79,21.04,44.33,21.26,44.33,21.26z"/>
	</g>
	<text transform="matrix(1 0 0 1 37.1009 70.1569)" class="st2 st3">ollowerScrape</text>
</g>
</svg>
